<?xml version="1.0" standalone="no"?><svg xmlns="http://www.w3.org/2000/svg" viewBox="0 0 1440 320"><path fill="#121212" fill-opacity="1" d="M0,64L21.8,74.7C43.6,85,87,107,131,106.7C174.5,107,218,85,262,106.7C305.5,128,349,192,393,213.3C436.4,235,480,213,524,202.7C567.3,192,611,192,655,176C698.2,160,742,128,785,144C829.1,160,873,224,916,213.3C960,203,1004,117,1047,112C1090.9,107,1135,181,1178,202.7C1221.8,224,1265,192,1309,149.3C1352.7,107,1396,53,1418,26.7L1440,0L1440,0L1418.2,0C1396.4,0,1353,0,1309,0C1265.5,0,1222,0,1178,0C1134.5,0,1091,0,1047,0C1003.6,0,960,0,916,0C872.7,0,829,0,785,0C741.8,0,698,0,655,0C610.9,0,567,0,524,0C480,0,436,0,393,0C349.1,0,305,0,262,0C218.2,0,175,0,131,0C87.3,0,44,0,22,0L0,0Z"></path></svg>